<svg width="19" height="13" viewBox="0 0 19 13" fill="none" xmlns="http://www.w3.org/2000/svg">
<path d="M18.0247 -2.38419e-06L14.4247 7.68L14.0647 5.24C14.7847 5.24 15.438 5.41333 16.0247 5.76C16.6114 6.10667 17.078 6.57333 17.4247 7.16C17.7714 7.72 17.9447 8.34667 17.9447 9.04C17.9447 9.76 17.7714 10.4133 17.4247 11C17.078 11.56 16.6114 12.0133 16.0247 12.36C15.438 12.7067 14.7847 12.88 14.0647 12.88C13.3447 12.88 12.6914 12.7067 12.1047 12.36C11.518 12.0133 11.038 11.5467 10.6647 10.96C10.318 10.3467 10.1447 9.68 10.1447 8.96C10.1447 8.24 10.3047 7.49333 10.6247 6.72C10.9447 5.92 11.5047 4.92 12.3047 3.72L14.6647 -2.38419e-06H18.0247ZM8.50469 -2.38419e-06L4.94469 7.68L4.54469 5.24C5.29135 5.24 5.94469 5.41333 6.50469 5.76C7.09135 6.10667 7.55802 6.57333 7.90469 7.16C8.27802 7.72 8.46469 8.34667 8.46469 9.04C8.46469 9.76 8.27802 10.4133 7.90469 11C7.55802 11.56 7.09135 12.0133 6.50469 12.36C5.94469 12.7067 5.29135 12.88 4.54469 12.88C3.85135 12.88 3.19802 12.7067 2.58469 12.36C1.99802 12.0133 1.53135 11.5467 1.18469 10.96C0.838021 10.3467 0.664688 9.68 0.664688 8.96C0.664688 8.24 0.824688 7.49333 1.14469 6.72C1.46469 5.92 2.02469 4.92 2.82469 3.72L5.18469 -2.38419e-06H8.50469Z" fill="black"/>
</svg>
